<svg width="192" height="192" viewBox="0 0 192 192" fill="none" xmlns="http://www.w3.org/2000/svg">
  <defs>
    <linearGradient id="bulbGradient" x1="0%" y1="0%" x2="100%" y2="100%">
      <stop offset="0%" style="stop-color:#3b82f6;stop-opacity:1" />
      <stop offset="50%" style="stop-color:#8b5cf6;stop-opacity:1" />
      <stop offset="100%" style="stop-color:#06b6d4;stop-opacity:1" />
    </linearGradient>
  </defs>

  <!-- Background circle -->
  <circle cx="96" cy="96" r="90" fill="url(#bulbGradient)"/>

  <!-- Light bulb -->
  <path d="M96 36c-21 0-39 18-39 39 0 15 9 27 21 33v12c0 9 6 15 15 15h6c9 0 15-6 15-15v-12c12-6 21-18 21-33 0-21-18-39-39-39z"
        fill="#fff" opacity="0.95"/>

  <!-- Filament lines -->
  <path d="M84 75h24M81 84h30M84 93h24" stroke="#3b82f6" stroke-width="5" stroke-linecap="round"/>

  <!-- Base -->
  <rect x="87" y="120" width="18" height="9" rx="3" fill="#fff" opacity="0.85"/>

  <!-- Spark effects -->
  <circle cx="72" cy="60" r="5" fill="#fbbf24" opacity="0.9"/>
  <circle cx="123" cy="69" r="4" fill="#fbbf24" opacity="0.7"/>
  <circle cx="69" cy="84" r="3" fill="#fbbf24" opacity="0.8"/>
</svg>
