<svg width="32" height="32" viewBox="0 0 32 32" fill="none" xmlns="http://www.w3.org/2000/svg">
  <defs>
    <linearGradient id="bulbGradient" x1="0%" y1="0%" x2="100%" y2="100%">
      <stop offset="0%" style="stop-color:#3b82f6;stop-opacity:1" />
      <stop offset="50%" style="stop-color:#8b5cf6;stop-opacity:1" />
      <stop offset="100%" style="stop-color:#06b6d4;stop-opacity:1" />
    </linearGradient>
  </defs>
  
  <!-- Background circle -->
  <circle cx="16" cy="16" r="15" fill="url(#bulbGradient)" stroke="#fff" stroke-width="2"/>
  
  <!-- Light bulb -->
  <path d="M16 6c-3.5 0-6.5 3-6.5 6.5 0 2.5 1.5 4.5 3.5 5.5v2c0 1.5 1 2.5 2.5 2.5h1c1.5 0 2.5-1 2.5-2.5v-2c2-1 3.5-3 3.5-5.5C22.5 9 19.5 6 16 6z" 
        fill="#fff" opacity="0.9"/>
  
  <!-- Filament lines -->
  <path d="M14 12.5h4M13.5 14h5M14 15.5h4" stroke="#3b82f6" stroke-width="0.8" stroke-linecap="round"/>
  
  <!-- Base -->
  <rect x="14.5" y="20" width="3" height="1.5" rx="0.5" fill="#fff" opacity="0.8"/>
  
  <!-- Spark effect -->
  <circle cx="12" cy="10" r="0.8" fill="#fbbf24" opacity="0.8"/>
  <circle cx="20.5" cy="11.5" r="0.6" fill="#fbbf24" opacity="0.6"/>
  <circle cx="11.5" cy="14" r="0.5" fill="#fbbf24" opacity="0.7"/>
</svg>